<svg width="80" height="80" viewBox="0 0 80 80" fill="none" xmlns="http://www.w3.org/2000/svg">
<path d="M70.7321 17.3838L70.672 17.3235C71.3901 16.3057 71.8677 15.0503 71.8677 13.6708C71.8677 10.199 69.1224 7.38681 65.6589 7.38681C64.166 7.38681 62.8535 7.92584 61.778 8.76276C55.6258 4.45403 48.161 2 40.1586 2C19.0769 2 2 19.1179 2 40.2502C2 61.3825 19.0769 78.5004 40.1586 78.5004C61.2402 78.5004 78.3171 61.3825 78.3171 40.2502C78.3171 31.6895 75.5081 23.7281 70.7321 17.3838Z" stroke="#CCCCCC" stroke-width="3"/>
<path d="M7.67461 40.2502C7.67461 58.2086 22.1866 72.8122 40.1586 72.8122C58.0739 72.8122 72.6425 58.2653 72.6425 40.2502C72.6425 22.2351 58.1305 7.68824 40.1586 7.68824C22.1831 7.68824 7.67461 22.2315 7.67461 40.2502ZM2 40.2502C2 19.1179 19.0769 2 40.1586 2C61.2402 2 78.3171 19.1179 78.3171 40.2502C78.3171 61.3825 61.2402 78.5004 40.1586 78.5004C19.0769 78.5004 2 61.379 2 40.2502Z" fill="white"/>
<path d="M5.70428 40.2502C5.70428 21.2138 21.1113 5.77325 40.0986 5.77325C59.086 5.77325 74.493 21.2173 74.493 40.2502C74.493 59.2831 59.086 74.7272 40.0986 74.7272C21.1113 74.7272 5.70428 59.2831 5.70428 40.2502Z" fill="url(#paint0_linear_1490_583)"/>
<path d="M5.88092 40.2502C5.88092 21.2138 21.2278 5.82999 40.1585 5.82999C59.0892 5.82999 74.4361 21.2138 74.4361 40.1899C74.4361 59.1661 59.0892 74.5499 40.1585 74.5499C21.2278 74.6102 5.88092 59.2264 5.88092 40.2502Z" stroke="#009DE0" stroke-width="0.931"/>
<path d="M59.4465 13.6141C59.4465 10.1423 62.252 7.33005 65.6553 7.33005C69.1188 7.33005 71.8642 10.1423 71.8642 13.6141C71.8642 17.0859 69.0587 19.8981 65.6553 19.8981C62.252 19.8981 59.4465 17.0859 59.4465 13.6141Z" fill="white"/>
<path d="M62.3122 13.6141C62.3122 11.7594 63.8051 10.2628 65.6554 10.2628C67.5057 10.2628 68.9986 11.7594 68.9986 13.6141C68.9986 15.4688 67.5057 16.9653 65.6554 16.9653C63.8653 16.9653 62.3122 15.4688 62.3122 13.6141Z" fill="#009DE0"/>
<path d="M62.4928 13.6141C62.4928 11.8196 63.9256 10.3834 65.7157 10.3834C67.5058 10.3834 68.9386 11.8196 68.9386 13.6141C68.9386 15.4085 67.5058 16.8447 65.7157 16.8447C63.9256 16.8447 62.4928 15.4085 62.4928 13.6141Z" fill="#F39200"/>
<path d="M42.6736 20.9159C42.6736 21.1145 42.6524 21.3095 42.6135 21.4939C42.3482 22.7848 41.2055 23.7529 39.8399 23.7529C38.8528 23.7529 37.9861 23.2493 37.4802 22.4833C37.1795 22.0365 37.0061 21.4939 37.0061 20.9123C37.0061 19.3449 38.2726 18.0753 39.8363 18.0753C41.4071 18.0789 42.6736 19.3484 42.6736 20.9159Z" fill="white"/>
<path d="M48.8541 26.0296L40.9507 32.0938C40.3245 32.5761 39.571 32.8137 38.8245 32.8137C37.9189 32.8137 37.0203 32.4661 36.3445 31.7888L34.3245 29.7639C34.6853 29.8383 35.0603 29.8738 35.4424 29.8738C36.907 29.8738 38.2408 29.3099 39.2384 28.3844L46.4343 22.8628C47.3081 22.1961 48.5534 22.3592 49.2221 23.2316C49.8907 24.1111 49.7244 25.3594 48.8541 26.0296Z" fill="white"/>
<path d="M39.2419 28.3879C38.2443 29.3135 36.9105 29.8773 35.4459 29.8773C35.0638 29.8773 34.6888 29.8383 34.328 29.7674L32.3433 27.7779C31.5649 27.0013 31.5649 25.7388 32.3433 24.9622C33.1216 24.1855 34.3775 24.1855 35.1523 24.9622L38.8634 28.6822L39.2419 28.3879Z" fill="white"/>
<path opacity="0.57" d="M39.2419 28.3879C38.2443 29.3135 36.9105 29.8773 35.4459 29.8773C35.0638 29.8773 34.6888 29.8383 34.328 29.7674L32.3433 27.7779C31.5649 27.0013 31.5649 25.7388 32.3433 24.9622C33.1216 24.1855 34.3775 24.1855 35.1523 24.9622L38.8634 28.6822L39.2419 28.3879Z" fill="white"/>
<path d="M42.6736 20.9159C42.6736 21.1145 42.6524 21.3095 42.6135 21.4939C42.3482 22.7848 41.2055 23.7529 39.8399 23.7529C38.8528 23.7529 37.9861 23.2493 37.4802 22.4833C37.1795 22.0365 37.0061 21.4939 37.0061 20.9123C37.0061 19.3449 38.2726 18.0753 39.8363 18.0753C41.4071 18.0789 42.6736 19.3484 42.6736 20.9159Z" fill="white"/>
<path d="M48.8541 26.0296L40.9507 32.0938C40.3245 32.5761 39.571 32.8137 38.8245 32.8137C37.9189 32.8137 37.0203 32.4661 36.3445 31.7888L34.3245 29.7639C34.6853 29.8383 35.0603 29.8738 35.4424 29.8738C36.907 29.8738 38.2408 29.3099 39.2384 28.3844L46.4343 22.8628C47.3081 22.1961 48.5534 22.3592 49.2221 23.2316C49.8907 24.1111 49.7244 25.3594 48.8541 26.0296Z" fill="white"/>
<path d="M39.2419 28.3879C38.2443 29.3135 36.9105 29.8773 35.4459 29.8773C35.0638 29.8773 34.6888 29.8383 34.328 29.7674L32.3433 27.7779C31.5649 27.0013 31.5649 25.7388 32.3433 24.9622C33.1216 24.1855 34.3775 24.1855 35.1523 24.9622L38.8634 28.6822L39.2419 28.3879Z" fill="white"/>
<path opacity="0.57" d="M39.2419 28.3879C38.2443 29.3135 36.9105 29.8773 35.4459 29.8773C35.0638 29.8773 34.6888 29.8383 34.328 29.7674L32.3433 27.7779C31.5649 27.0013 31.5649 25.7388 32.3433 24.9622C33.1216 24.1855 34.3775 24.1855 35.1523 24.9622L38.8634 28.6822L39.2419 28.3879Z" fill="white"/>
<path d="M38.7148 50.96C38.7148 50.7614 38.7361 50.5663 38.775 50.3819C39.0403 49.0911 40.183 48.123 41.5486 48.123C42.5357 48.123 43.4024 48.6265 43.9083 49.3925C44.209 49.8394 44.3824 50.3819 44.3824 50.9635C44.3824 52.531 43.1159 53.8006 41.5522 53.8006C39.9849 53.797 38.7148 52.5274 38.7148 50.96Z" fill="white"/>
<path d="M32.5381 45.8462L40.4415 39.7821C41.0677 39.2998 41.8212 39.0622 42.5677 39.0622C43.4734 39.0622 44.372 39.4097 45.0477 40.0871L47.0678 42.112C46.7069 42.0375 46.3319 42.0021 45.9498 42.0021C44.4852 42.0021 43.1515 42.5659 42.1538 43.4915L34.9579 49.0131C34.0841 49.6798 32.8388 49.5166 32.1702 48.6443C31.5015 47.7648 31.6643 46.5165 32.5381 45.8462Z" fill="white"/>
<path d="M42.1501 43.488C43.1478 42.5624 44.4815 41.9985 45.9462 41.9985C46.3283 41.9985 46.7033 42.0375 47.0641 42.1085L49.0488 44.0979C49.8271 44.8746 49.8271 46.137 49.0488 46.9137C48.2705 47.6903 47.0146 47.6903 46.2398 46.9137L42.5287 43.1936L42.1501 43.488Z" fill="white"/>
<path opacity="0.57" d="M42.1501 43.488C43.1478 42.5624 44.4815 41.9985 45.9462 41.9985C46.3283 41.9985 46.7033 42.0375 47.0641 42.1085L49.0488 44.0979C49.8271 44.8746 49.8271 46.137 49.0488 46.9137C48.2705 47.6903 47.0146 47.6903 46.2398 46.9137L42.5287 43.1936L42.1501 43.488Z" fill="white"/>
<path d="M25.71 33.9555C25.9082 33.9555 26.1027 33.9768 26.2867 34.0158C27.5745 34.2818 28.5403 35.4272 28.5403 36.7961C28.5403 37.7855 28.0379 38.6544 27.2738 39.1615C26.828 39.4629 26.2867 39.6367 25.7065 39.6367C24.1428 39.6367 22.8763 38.3671 22.8763 36.7997C22.8763 35.2251 24.1463 33.9555 25.71 33.9555Z" fill="white"/>
<path d="M30.808 27.7602L36.8576 35.6826C37.3387 36.3103 37.5758 37.0656 37.5758 37.8139C37.5758 38.7217 37.2291 39.6225 36.5533 40.2998L34.5333 42.3248C34.6076 41.963 34.6429 41.5871 34.6429 41.2041C34.6429 39.736 34.0804 38.399 33.1571 37.399L27.6523 30.1823C26.9872 29.3063 27.1499 28.0581 28.0202 27.3878C28.894 26.7211 30.1429 26.8842 30.808 27.7602Z" fill="white"/>
<path d="M33.1605 37.3954C34.0839 38.3955 34.6464 39.7324 34.6464 41.2006C34.6464 41.5836 34.6075 41.9595 34.5367 42.3212L32.552 44.3107C31.7772 45.0909 30.5178 45.0909 29.743 44.3107C28.9682 43.5305 28.9682 42.2716 29.743 41.495L33.4541 37.7749L33.1605 37.3954Z" fill="white"/>
<path opacity="0.57" d="M33.1605 37.3954C34.0839 38.3955 34.6464 39.7324 34.6464 41.2006C34.6464 41.5836 34.6075 41.9595 34.5367 42.3212L32.552 44.3107C31.7772 45.0909 30.5178 45.0909 29.743 44.3107C28.9682 43.5305 28.9682 42.2716 29.743 41.495L33.4541 37.7749L33.1605 37.3954Z" fill="white"/>
<path d="M30.808 27.7602L36.8576 35.6826C37.3387 36.3103 37.5758 37.0656 37.5758 37.8139C37.5758 38.7217 37.2291 39.6225 36.5533 40.2998L34.5333 42.3248C34.6076 41.963 34.6429 41.5871 34.6429 41.2041C34.6429 39.736 34.0804 38.399 33.1571 37.399L27.6523 30.1823C26.9872 29.3063 27.1499 28.0581 28.0202 27.3878C28.894 26.7211 30.1429 26.8842 30.808 27.7602Z" fill="white"/>
<path d="M33.1605 37.3954C34.0839 38.3955 34.6464 39.7324 34.6464 41.2006C34.6464 41.5836 34.6075 41.9595 34.5367 42.3212L32.552 44.3107C31.7772 45.0909 30.5178 45.0909 29.743 44.3107C28.9682 43.5305 28.9682 42.2716 29.743 41.495L33.4541 37.7749L33.1605 37.3954Z" fill="white"/>
<path opacity="0.57" d="M33.1605 37.3954C34.0839 38.3955 34.6464 39.7324 34.6464 41.2006C34.6464 41.5836 34.6075 41.9595 34.5367 42.3212L32.552 44.3107C31.7772 45.0909 30.5178 45.0909 29.743 44.3107C28.9682 43.5305 28.9682 42.2716 29.743 41.495L33.4541 37.7749L33.1605 37.3954Z" fill="white"/>
<path d="M55.6823 37.9239C55.4842 37.9239 55.2896 37.9026 55.1056 37.8636C53.8179 37.5976 52.8521 36.4521 52.8521 35.0833C52.8521 34.0939 53.3544 33.225 54.1186 32.7179C54.5643 32.4165 55.1056 32.2427 55.6858 32.2427C57.2495 32.2427 58.516 33.5123 58.516 35.0797C58.5125 36.6507 57.246 37.9239 55.6823 37.9239Z" fill="white"/>
<path d="M50.5807 44.1156L44.531 36.1932C44.0499 35.5656 43.8129 34.8102 43.8129 34.0619C43.8129 33.1541 44.1596 32.2533 44.8353 31.576L46.8554 29.5511C46.7811 29.9128 46.7457 30.2887 46.7457 30.6717C46.7457 32.1398 47.3082 33.4768 48.2316 34.4768L53.7399 41.69C54.405 42.5659 54.2423 43.8142 53.372 44.4845C52.4946 45.1547 51.2493 44.9916 50.5807 44.1156Z" fill="white"/>
<path d="M48.2281 34.4804C47.3047 33.4803 46.7422 32.1434 46.7422 30.6752C46.7422 30.2922 46.7811 29.9163 46.8519 29.5546L48.8366 27.5651C49.6113 26.785 50.8708 26.785 51.6456 27.5651C52.4203 28.3453 52.4203 29.6043 51.6456 30.3809L47.9344 34.1009L48.2281 34.4804Z" fill="white"/>
<path opacity="0.57" d="M48.2281 34.4804C47.3047 33.4803 46.7422 32.1434 46.7422 30.6752C46.7422 30.2922 46.7811 29.9163 46.8519 29.5546L48.8366 27.5651C49.6113 26.785 50.8708 26.785 51.6456 27.5651C52.4203 28.3453 52.4203 29.6043 51.6456 30.3809L47.9344 34.1009L48.2281 34.4804Z" fill="white"/>
<path opacity="0.48" d="M37.4837 22.487C37.183 22.0401 37.0096 21.4976 37.0096 20.916C37.0096 19.3485 38.2761 18.0789 39.8398 18.0789C41.4035 18.0789 42.6701 19.3485 42.6701 20.916C42.6701 21.1146 42.6488 21.3096 42.6099 21.494C42.3446 22.7849 41.2019 23.753 39.8363 23.753C38.8563 23.7565 37.9896 23.2494 37.4837 22.487ZM34.3244 29.764L36.3445 31.7889C37.0202 32.4698 37.9188 32.8138 38.8245 32.8138C39.571 32.8138 40.3245 32.5762 40.9507 32.0939L48.8541 26.0297C49.728 25.3595 49.8907 24.1112 49.2221 23.2352C48.5534 22.3629 47.3081 22.1962 46.4343 22.8664L39.2384 28.388L38.8599 28.6823L35.1487 24.9587C34.374 24.1821 33.1145 24.1821 32.3397 24.9587C31.5614 25.7354 31.5614 26.9979 32.3397 27.7745L34.3244 29.764ZM41.5486 48.1231C40.183 48.1231 39.0438 49.0912 38.775 50.382C38.7361 50.57 38.7148 50.7615 38.7148 50.9601C38.7148 52.5275 39.9814 53.7971 41.5451 53.7971C43.1088 53.7971 44.3753 52.5275 44.3753 50.9601C44.3753 50.3785 44.2019 49.8395 43.9012 49.3891C43.3989 48.6266 42.5321 48.1231 41.5486 48.1231ZM47.064 42.1121L45.0439 40.0872C44.3682 39.4063 43.4696 39.0623 42.5639 39.0623C41.8175 39.0623 41.0639 39.2999 40.4377 39.7822L32.5343 45.8464C31.6605 46.5166 31.4977 47.7649 32.1664 48.6408C32.835 49.5132 34.0803 49.6799 34.9542 49.0096L42.15 43.4881L42.5286 43.1937L46.2397 46.9138C47.0145 47.6904 48.2739 47.6904 49.0487 46.9138C49.827 46.1371 49.827 44.8747 49.0487 44.098L47.064 42.1121ZM26.2866 34.0124C26.0991 33.9734 25.908 33.9521 25.7099 33.9521C24.1462 33.9521 22.8797 35.2217 22.8797 36.7891C22.8797 38.3566 24.1462 39.6262 25.7099 39.6262C26.2901 39.6262 26.8279 39.4524 27.2772 39.151C28.0413 38.6439 28.5437 37.775 28.5437 36.7856C28.5402 35.4238 27.5743 34.2819 26.2866 34.0124ZM34.5367 42.3249L36.5568 40.3C37.236 39.6226 37.5792 38.7219 37.5792 37.814C37.5792 37.0658 37.3422 36.3104 36.861 35.6827L30.8114 27.7603C30.1428 26.8844 28.8975 26.7212 28.0236 27.3915C27.1533 28.0617 26.9871 29.31 27.6557 30.186L33.164 37.3991L33.4577 37.7786L29.7465 41.4986C28.9718 42.2752 28.9718 43.5377 29.7465 44.3144C30.5213 45.0945 31.7808 45.0945 32.5555 44.3144L34.5367 42.3249ZM55.6821 32.2464C55.1019 32.2464 54.5641 32.4201 54.1148 32.7216C53.3507 33.2287 52.8483 34.0975 52.8483 35.0869C52.8483 36.4558 53.8141 37.5977 55.1019 37.8672C55.2894 37.9062 55.4804 37.9275 55.6785 37.9275C57.2422 37.9275 58.5087 36.6579 58.5087 35.0905C58.5123 33.5159 57.2458 32.2464 55.6821 32.2464ZM48.2279 34.4805L47.9343 34.1011L51.6454 30.381C52.4202 29.6044 52.4202 28.3419 51.6454 27.5653C50.8707 26.7851 49.6112 26.7851 48.8364 27.5653L46.8517 29.5547L44.8317 31.5797C44.1524 32.257 43.8092 33.1577 43.8092 34.0656C43.8092 34.8139 44.0463 35.5692 44.5274 36.1969L50.577 44.1193C51.2457 44.9952 52.491 45.1584 53.3648 44.4881C54.2351 43.8179 54.4014 42.5696 53.7327 41.6937L48.2279 34.4805Z" fill="white"/>
<path d="M28.0806 58.8398C28.399 58.8398 28.6962 58.9001 28.9686 59.0171C29.241 59.1342 29.4851 59.2973 29.6938 59.5065C29.9025 59.7122 30.0688 59.9533 30.1856 60.23C30.3023 60.5066 30.3624 60.8009 30.3624 61.1201V63.411H29.4603V61.1201C29.4603 60.9286 29.4249 60.7513 29.3542 60.5846C29.2834 60.4179 29.1844 60.2725 29.0605 60.1484C28.9367 60.0243 28.7881 59.925 28.6183 59.8541C28.4485 59.7831 28.2716 59.7477 28.0806 59.7477C27.8895 59.7477 27.7126 59.7831 27.5464 59.8541C27.3801 59.925 27.235 60.0243 27.1112 60.1484C26.9874 60.2725 26.8883 60.4215 26.8176 60.5846C26.7468 60.7513 26.7115 60.9286 26.7115 61.1201V63.411H25.8093V61.1201C25.8093 60.9286 25.7739 60.7513 25.7032 60.5846C25.6324 60.4179 25.5334 60.2725 25.4095 60.1484C25.2857 60.0243 25.1371 59.925 24.9673 59.8541C24.7975 59.7831 24.6171 59.7477 24.4296 59.7477C24.2385 59.7477 24.0617 59.7831 23.8954 59.8541C23.7291 59.925 23.5841 60.0243 23.4602 60.1484C23.3364 60.2725 23.2373 60.4215 23.1666 60.5846C23.0958 60.7513 23.0605 60.9286 23.0605 61.1201V63.411H22.1583V61.1201C22.1583 60.8009 22.2185 60.503 22.3352 60.23C22.452 59.9569 22.6147 59.7157 22.8234 59.5065C23.0286 59.3008 23.2727 59.1377 23.5487 59.0171C23.8246 58.9001 24.1218 58.8398 24.4331 58.8398C24.8117 58.8398 25.1584 58.9249 25.4732 59.0881C25.7881 59.2547 26.0499 59.4781 26.2586 59.7654C26.4673 59.4817 26.7327 59.2547 27.0511 59.0881C27.3659 58.9249 27.7091 58.8398 28.0806 58.8398Z" fill="white"/>
<path d="M32.0998 58.8398V63.411H31.2047V58.8398H32.0998Z" fill="white"/>
<path d="M37.7846 58.8611C38.103 58.8611 38.4001 58.9214 38.6725 59.0384C38.945 59.1554 39.1891 59.3186 39.3978 59.5278C39.6065 59.737 39.7728 59.9746 39.8895 60.2512C40.0063 60.5278 40.0664 60.8222 40.0664 61.1413C40.0664 61.4534 40.0063 61.7478 39.8895 62.0279C39.7728 62.3081 39.6065 62.5492 39.3978 62.762C39.1891 62.9712 38.945 63.1379 38.6725 63.2549C38.4001 63.372 38.103 63.4322 37.7846 63.4322H36.4154V65.2657H35.5133V61.1449C35.5133 60.8257 35.5734 60.5278 35.6902 60.2548C35.8069 59.9817 35.9697 59.7406 36.1784 59.5313C36.3836 59.3256 36.6277 59.1625 36.9037 59.0419C37.1796 58.9214 37.4732 58.8611 37.7846 58.8611ZM38.3223 62.418C38.4921 62.3471 38.6407 62.2478 38.7645 62.1237C38.8883 61.9995 38.9874 61.8506 39.0582 61.6804C39.1289 61.5102 39.1643 61.3328 39.1643 61.1413C39.1643 60.9499 39.1289 60.7725 39.0582 60.6059C38.9874 60.4392 38.8883 60.2938 38.7645 60.1697C38.6407 60.0455 38.4921 59.9462 38.3223 59.8753C38.1525 59.8044 37.9756 59.7689 37.7846 59.7689C37.5935 59.7689 37.4166 59.8044 37.2504 59.8753C37.0841 59.9462 36.939 60.0455 36.8152 60.1697C36.6914 60.2938 36.5923 60.4392 36.5216 60.6059C36.4508 60.7725 36.4154 60.9499 36.4154 61.1413V62.5244H37.7846C37.9756 62.5244 38.1525 62.4889 38.3223 62.418Z" fill="white"/>
<path d="M40.8698 61.1414C40.8698 60.8222 40.9299 60.5243 41.0466 60.2512C41.1634 59.9782 41.3261 59.737 41.5349 59.5278C41.74 59.3221 41.9842 59.159 42.2601 59.0384C42.536 58.9214 42.8332 58.8611 43.1445 58.8611C43.4629 58.8611 43.7601 58.9214 44.0325 59.0384C44.3049 59.1554 44.549 59.3186 44.7578 59.5278C44.9665 59.737 45.1328 59.9746 45.2495 60.2512C45.3663 60.5243 45.4264 60.8222 45.4264 61.1414C45.4264 61.4534 45.3663 61.7478 45.2495 62.0279C45.1292 62.3045 44.9665 62.5492 44.7578 62.762C44.549 62.9712 44.3049 63.1379 44.0325 63.2549C43.7601 63.372 43.4629 63.4323 43.1445 63.4323C42.8332 63.4323 42.5396 63.372 42.2601 63.2549C41.9842 63.1379 41.74 62.9712 41.5349 62.762C41.3297 62.5528 41.1669 62.3081 41.0466 62.0279C40.9299 61.7478 40.8698 61.4534 40.8698 61.1414ZM41.7648 61.1414C41.7648 61.3329 41.8002 61.5102 41.8709 61.6804C41.9417 61.8506 42.0408 61.9995 42.1646 62.1237C42.2884 62.2478 42.437 62.3471 42.6068 62.418C42.7766 62.4889 42.9535 62.5244 43.1445 62.5244C43.3356 62.5244 43.5125 62.4889 43.6823 62.418C43.8521 62.3471 43.9972 62.2478 44.1245 62.1237C44.2483 61.9995 44.3474 61.8506 44.4181 61.6804C44.4889 61.5102 44.5243 61.3329 44.5243 61.1414C44.5243 60.9499 44.4889 60.7725 44.4181 60.6059C44.3474 60.4392 44.2483 60.2938 44.1245 60.1697C44.0007 60.0455 43.8521 59.9462 43.6823 59.8753C43.5125 59.8044 43.332 59.7689 43.1445 59.7689C42.9535 59.7689 42.7766 59.8044 42.6068 59.8753C42.437 59.9462 42.2884 60.0455 42.1646 60.1697C42.0408 60.2938 41.9417 60.4392 41.8709 60.6059C41.8002 60.7725 41.7648 60.9499 41.7648 61.1414Z" fill="white"/>
<path d="M48.9818 58.8398V59.7442H48.5254C48.3344 59.7442 48.1575 59.7796 47.9912 59.8505C47.8249 59.9215 47.6799 60.0208 47.5561 60.1449C47.4322 60.269 47.3332 60.4179 47.2624 60.5811C47.1917 60.7477 47.1563 60.9251 47.1563 61.1166V63.4075H46.2435V61.1166C46.2435 60.7974 46.3037 60.4995 46.4204 60.2264C46.5372 59.9534 46.7034 59.7122 46.9122 59.503C47.1209 59.2973 47.365 59.1342 47.6445 59.0136C47.9204 58.8966 48.2176 58.8363 48.5289 58.8363H48.9818V58.8398Z" fill="white"/>
<path d="M52.4842 62.5031V63.4074H52.0384C51.7271 63.4074 51.4334 63.3472 51.154 63.2301C50.878 63.1131 50.6339 62.9464 50.4216 62.7372C50.2129 62.528 50.0466 62.2833 49.9299 62.0031C49.8096 61.7265 49.753 61.4286 49.753 61.1165V57.0064H50.6551V59.7548H52.4842V60.6591H50.6551V61.1165C50.6551 61.308 50.6905 61.4854 50.7613 61.6556C50.832 61.8258 50.9311 61.9747 51.0549 62.0989C51.1787 62.223 51.3273 62.3223 51.4971 62.3932C51.6669 62.4641 51.8474 62.4996 52.0349 62.4996H52.4842V62.5031Z" fill="white"/>
<path d="M55.5905 58.8398C55.9089 58.8398 56.206 58.9001 56.4785 59.0171C56.7509 59.1342 56.9914 59.2973 57.2002 59.5065C57.4054 59.7122 57.5681 59.9533 57.6884 60.23C57.8051 60.503 57.8653 60.8009 57.8653 61.1201V63.411H55.5905C55.2791 63.411 54.9855 63.3507 54.706 63.2337C54.4301 63.1166 54.186 62.95 53.9737 62.7407C53.765 62.5315 53.5987 62.2868 53.4819 62.0066C53.3652 61.73 53.3051 61.4321 53.3051 61.1201C53.3051 60.8009 53.3652 60.503 53.4819 60.23C53.5987 59.9569 53.765 59.7157 53.9737 59.5065C54.1824 59.3008 54.4265 59.1377 54.706 59.0171C54.9855 58.9001 55.2791 58.8398 55.5905 58.8398ZM56.9596 62.5031V61.1201C56.9596 60.9286 56.9242 60.7513 56.8535 60.5846C56.7827 60.4179 56.6836 60.2725 56.5598 60.1484C56.436 60.0243 56.2909 59.925 56.1247 59.8541C55.9584 59.7831 55.7815 59.7477 55.5905 59.7477C55.3994 59.7477 55.2225 59.7831 55.0527 59.8541C54.8829 59.925 54.7343 60.0243 54.6105 60.1484C54.4867 60.2725 54.3876 60.4215 54.3169 60.5846C54.2461 60.7513 54.2107 60.9286 54.2107 61.1201C54.2107 61.3116 54.2461 61.4889 54.3169 61.6591C54.3876 61.8293 54.4867 61.9783 54.6105 62.1024C54.7343 62.2265 54.8829 62.3258 55.0527 62.3967C55.2225 62.4677 55.3994 62.5031 55.5905 62.5031H56.9596Z" fill="white"/>
<path d="M59.5492 57.0099V63.411H58.647V57.0099H59.5492Z" fill="white"/>
<defs>
<linearGradient id="paint0_linear_1490_583" x1="5.70255" y1="40.2497" x2="74.4944" y2="40.2497" gradientUnits="userSpaceOnUse">
<stop offset="0.1534" stop-color="#0069B4"/>
<stop offset="0.2558" stop-color="#0069B4"/>
<stop offset="0.3273" stop-color="#0B73BB"/>
<stop offset="0.6238" stop-color="#3498D4"/>
<stop offset="0.8583" stop-color="#4DAFE3"/>
<stop offset="1" stop-color="#56B8E9"/>
</linearGradient>
</defs>
</svg>
