<svg width="101" height="51" viewBox="0 0 101 51" fill="none" xmlns="http://www.w3.org/2000/svg">
<path d="M9.64464 28.1205V21.5436H13.0005V28.0185C13.0005 30.0525 13.8485 30.8666 15.2556 30.8666C16.6445 30.8666 17.4926 30.0525 17.4926 28.0185V21.5436H20.7977V28.1205C20.7977 31.6637 18.7295 33.6465 15.2217 33.6465C11.7127 33.6465 9.64464 31.6637 9.64464 28.1205Z" fill="#7C8AA7"/>
<path d="M34.1884 21.5438V33.4089H31.4256L26.1876 27.0869V33.4089H22.8996V21.5438H25.6625L30.9005 27.8659V21.5438H34.1884Z" fill="#7C8AA7"/>
<path d="M40.3238 32.3412L41.4259 29.8664C42.4768 30.5614 43.968 31.0364 45.3408 31.0364C46.7308 31.0364 47.2737 30.6464 47.2737 30.0704C47.2737 28.1883 40.5266 29.5613 40.5266 25.1544C40.5266 23.0355 42.2555 21.3065 45.7816 21.3065C47.3236 21.3065 48.9177 21.6624 50.0867 22.3404L49.0529 24.8324C47.9179 24.2223 46.7988 23.9175 45.7649 23.9175C44.358 23.9175 43.8499 24.3915 43.8499 24.9855C43.8499 26.7984 50.5788 25.4424 50.5788 29.8155C50.5788 31.8836 48.8498 33.6466 45.3237 33.6466C43.3747 33.6466 41.4427 33.1215 40.3238 32.3415" fill="#7C8AA7"/>
<path d="M61.1385 27.4764C61.1385 25.4254 59.7314 24.0864 57.9346 24.0864C56.1386 24.0864 54.7315 25.4254 54.7315 27.4764C54.7315 29.5275 56.1384 30.8664 57.9346 30.8664C59.7314 30.8664 61.1385 29.5275 61.1385 27.4764ZM51.3415 27.4764C51.3415 23.9165 54.1385 21.3065 57.9346 21.3065C61.7316 21.3065 64.5285 23.9165 64.5285 27.4764C64.5285 31.0364 61.7316 33.6464 57.9346 33.6464C54.1385 33.6464 51.3415 31.0364 51.3415 27.4764Z" fill="#7C8AA7"/>
<path d="M66.1216 21.5438H69.4776V30.7478H75.1397V33.4089H66.1216V21.5438Z" fill="#7C8AA7"/>
<path d="M85.2924 27.4764C85.2924 25.4254 83.8853 24.0864 82.0884 24.0864C80.2925 24.0864 78.8853 25.4254 78.8853 27.4764C78.8853 29.5275 80.2922 30.8664 82.0884 30.8664C83.8853 30.8664 85.2924 29.5275 85.2924 27.4764ZM75.4953 27.4764C75.4953 23.9165 78.2913 21.3065 82.0884 21.3065C85.8854 21.3065 88.6824 23.9165 88.6824 27.4764C88.6824 31.0364 85.8854 33.6464 82.0884 33.6464C78.2913 33.6464 75.4953 31.0364 75.4953 27.4764Z" fill="#7C8AA7"/>
<path d="M0 43.9332C0 40.3231 2.76285 37.7633 6.52605 37.7633C8.71317 37.7633 10.475 38.5603 11.628 40.0013L9.49195 41.9333C8.74603 41.0352 7.83096 40.5432 6.69504 40.5432C4.746 40.5432 3.39 41.8992 3.39 43.9332C3.39 45.9672 4.746 47.3232 6.69504 47.3232C7.83096 47.3232 8.74603 46.8322 9.49195 45.9331L11.628 47.8651C10.475 49.3061 8.71293 50.1031 6.52605 50.1031C2.76309 50.1031 0 47.5431 0 43.9332Z" fill="#7C8AA7"/>
<path d="M22.4757 47.2723V49.8652H12.9497V38.0001H22.2557V40.594H16.2717V42.594H21.5438V45.102H16.2717V47.272L22.4757 47.2723Z" fill="#7C8AA7"/>
<path d="M35.4595 38.0004V49.8655H32.6966L27.4586 43.5434V49.8655H24.1706V38.0004H26.9335L32.1715 44.3224V38.0004H35.4595Z" fill="#7C8AA7"/>
<path d="M37.0526 43.9332C37.0526 40.3231 39.8155 37.7633 43.5787 37.7633C45.7658 37.7633 47.5277 38.5603 48.6806 40.0013L46.5446 41.9333C45.7987 41.0352 44.8836 40.5432 43.7477 40.5432C41.7986 40.5432 40.4426 41.8992 40.4426 43.9332C40.4426 45.9672 41.7986 47.3232 43.7477 47.3232C44.8836 47.3232 45.7987 46.8322 46.5446 45.9331L48.6806 47.8651C47.5277 49.3061 45.7656 50.1031 43.5787 50.1031C39.8157 50.1031 37.0526 47.5431 37.0526 43.9332Z" fill="#7C8AA7"/>
<path d="M58.9351 43.9332C58.9351 41.8822 57.528 40.5432 55.7311 40.5432C53.9352 40.5432 52.5281 41.8822 52.5281 43.9332C52.5281 45.9843 53.9349 47.3232 55.7311 47.3232C57.528 47.3232 58.9351 45.9843 58.9351 43.9332ZM49.1381 43.9332C49.1381 40.3733 51.935 37.7633 55.7311 37.7633C59.5281 37.7633 62.3251 40.3733 62.3251 43.9332C62.3251 47.4931 59.5281 50.1031 55.7311 50.1031C51.935 50.1031 49.1381 47.4931 49.1381 43.9332Z" fill="#7C8AA7"/>
<path d="M63.0876 48.798L64.1897 46.3231C65.2406 47.0182 66.7318 47.4931 68.1046 47.4931C69.4946 47.4931 70.0375 47.1031 70.0375 46.5271C70.0375 44.6451 63.2904 46.0181 63.2904 41.6112C63.2904 39.4923 65.0193 37.7633 68.5454 37.7633C70.0874 37.7633 71.6815 38.1192 72.8505 38.7972L71.8166 41.2891C70.6816 40.6791 69.5625 40.3743 68.5286 40.3743C67.1217 40.3743 66.6136 40.8483 66.6136 41.4413C66.6136 43.2552 73.3425 41.8992 73.3425 46.2723C73.3425 48.3403 71.6136 50.1031 68.0875 50.1031C66.1385 50.1031 64.2065 49.578 63.0876 48.798Z" fill="#7C8AA7"/>
<path d="M74.6136 44.5773V38.0004H77.9695V44.4753C77.9695 46.5093 78.8174 47.3234 80.2246 47.3234C81.6134 47.3234 82.4615 46.5093 82.4615 44.4753V38.0004H85.7666V44.5773C85.7666 48.1204 83.6985 50.1033 80.1907 50.1033C76.6816 50.1033 74.6136 48.1204 74.6136 44.5773Z" fill="#7C8AA7"/>
<path d="M93.3434 47.1876C95.3604 47.1876 96.7164 45.9844 96.7164 43.9336C96.7164 41.8826 95.3604 40.6788 93.3434 40.6788H91.2244V47.1878H93.3434V47.1876ZM87.8685 38.0006H93.4795C97.4114 38.0006 100.107 40.2885 100.107 43.9336C100.107 47.5776 97.4116 49.8657 93.4795 49.8657H87.8685V38.0006Z" fill="#7C8AA7"/>
<path fill-rule="evenodd" clip-rule="evenodd" d="M27.4598 16.2951C30.9278 7.21011 39.7589 0.695068 50.0599 0.695068C60.384 0.695068 69.1939 7.18203 72.6458 16.2951H70.0068C66.6928 8.56395 59.0189 3.14811 50.0748 3.14811C41.1487 3.14811 33.4759 8.59203 30.1488 16.2951H27.4598Z" fill="#7C8AA7"/>
<path d="M70.1522 16.0745H72.3242C70.6041 11.7084 67.6632 7.97352 63.8033 5.25744C59.7653 2.41752 55.0133 0.915363 50.0604 0.915363C45.1214 0.915363 40.3713 2.4204 36.3244 5.26824C32.4604 7.9872 29.5126 11.7192 27.7824 16.0742H30.0043C31.6862 12.2503 34.4102 8.99328 37.8892 6.6492C41.5041 4.21416 45.7183 2.92728 50.0753 2.92728C58.7983 2.92728 66.6634 8.08248 70.1522 16.0745ZM72.9653 16.5154H69.8623L69.8042 16.3824C66.4152 8.47632 58.6702 3.3684 50.0753 3.3684C45.8064 3.3684 41.6772 4.62936 38.1353 7.01544C34.6862 9.33936 31.9941 12.5784 30.3513 16.3824L30.2933 16.5154H27.1392L27.2541 16.2163C28.9972 11.6503 32.0462 7.73928 36.0701 4.90728C40.1921 2.00736 45.03 0.474243 50.0602 0.474243C55.1042 0.474243 59.9441 2.00328 64.0572 4.8972C68.0772 7.72512 71.1182 11.6393 72.8522 16.2161L72.9653 16.5151V16.5154Z" fill="#7C8AA7"/>
<path d="M58.8316 5.68704C58.8316 2.54904 61.3757 0 64.5257 0C67.6617 0 70.2046 2.54904 70.2046 5.68704C70.2046 8.81808 67.6615 11.376 64.5257 11.376C61.3757 11.376 58.8316 8.81808 58.8316 5.68704Z" fill="#7C8AA7"/>
</svg>
